<svg xmlns="http://www.w3.org/2000/svg" viewBox="0 0 49.60 49.60" role="img" aria-label="Washer (circle in circle)">
<path d="M44.800,24.800L44.724,23.057L44.496,21.327L44.119,19.624L43.594,17.960L42.926,16.348L42.121,14.800L41.183,13.328L40.121,11.944L38.942,10.658L37.656,9.479L36.272,8.417L34.800,7.479L33.252,6.674L31.640,6.006L29.976,5.481L28.273,5.104L26.543,4.876L24.800,4.800L23.057,4.876L21.327,5.104L19.624,5.481L17.960,6.006L16.348,6.674L14.800,7.479L13.328,8.417L11.944,9.479L10.658,10.658L9.479,11.944L8.417,13.328L7.479,14.800L6.674,16.348L6.006,17.960L5.481,19.624L5.104,21.327L4.876,23.057L4.800,24.800L4.876,26.543L5.104,28.273L5.481,29.976L6.006,31.640L6.674,33.252L7.479,34.800L8.417,36.272L9.479,37.656L10.658,38.942L11.944,40.121L13.328,41.183L14.800,42.121L16.348,42.926L17.960,43.594L19.624,44.119L21.327,44.496L23.057,44.724L24.800,44.800L26.543,44.724L28.273,44.496L29.976,44.119L31.640,43.594L33.252,42.926L34.800,42.121L36.272,41.183L37.656,40.121L38.942,38.942L40.121,37.656L41.183,36.272L42.121,34.800L42.926,33.252L43.594,31.640L44.119,29.976L44.496,28.273L44.724,26.543Z M33.800,24.800L33.766,24.016L33.663,23.237L33.493,22.471L33.257,21.722L32.957,20.996L32.594,20.300L32.172,19.638L31.694,19.015L31.164,18.436L30.585,17.906L29.962,17.428L29.300,17.006L28.604,16.643L27.878,16.343L27.129,16.107L26.363,15.937L25.584,15.834L24.800,15.800L24.016,15.834L23.237,15.937L22.471,16.107L21.722,16.343L20.996,16.643L20.300,17.006L19.638,17.428L19.015,17.906L18.436,18.436L17.906,19.015L17.428,19.638L17.006,20.300L16.643,20.996L16.343,21.722L16.107,22.471L15.937,23.237L15.834,24.016L15.800,24.800L15.834,25.584L15.937,26.363L16.107,27.129L16.343,27.878L16.643,28.604L17.006,29.300L17.428,29.962L17.906,30.585L18.436,31.164L19.015,31.694L19.638,32.172L20.300,32.594L20.996,32.957L21.722,33.257L22.471,33.493L23.237,33.663L24.016,33.766L24.800,33.800L25.584,33.766L26.363,33.663L27.129,33.493L27.878,33.257L28.604,32.957L29.300,32.594L29.962,32.172L30.585,31.694L31.164,31.164L31.694,30.585L32.172,29.962L32.594,29.300L32.957,28.604L33.257,27.878L33.493,27.129L33.663,26.363L33.766,25.584Z" fill="#cfe0ff" fill-rule="evenodd" stroke="#1e293b" stroke-width="0.400" stroke-linejoin="round"/>
<g font-family="system-ui,sans-serif" font-size="2.60" fill="#475569" text-anchor="middle">
<text x="24.80" y="2.88">40 mm</text>
<text transform="translate(2.16 24.80) rotate(-90)">40 mm</text></g></svg>
